<?xml version="1.0" encoding="UTF-8" standalone="no"?>
<svg
   xmlns:dc="http://purl.org/dc/elements/1.1/"
   xmlns:cc="http://creativecommons.org/ns#"
   xmlns:rdf="http://www.w3.org/1999/02/22-rdf-syntax-ns#"
   xmlns:svg="http://www.w3.org/2000/svg"
   xmlns="http://www.w3.org/2000/svg"
   xmlns:sodipodi="http://sodipodi.sourceforge.net/DTD/sodipodi-0.dtd"
   xmlns:inkscape="http://www.inkscape.org/namespaces/inkscape"
   width="250"
   height="100"
   viewBox="0 0 66.145832 26.458334"
   version="1.1"
   id="svg907"
   inkscape:version="0.92.5 (2060ec1f9f, 2020-04-08)"
   sodipodi:docname="informace.svg">
  <defs
     id="defs901">
    <rect
       x="1.3229167"
       y="1.3229167"
       width="63.5"
       height="23.8125"
       id="rect1482" />
    <rect
       x="1.3229167"
       y="1.3229167"
       width="63.5"
       height="23.8125"
       id="rect1492" />
    <rect
       x="1.3229167"
       y="1.3229167"
       width="63.5"
       height="23.8125"
       id="rect1500" />
    <rect
       x="1.3229167"
       y="1.3229167"
       width="63.5"
       height="23.8125"
       id="rect1508" />
    <rect
       x="1.3229167"
       y="1.3229167"
       width="63.5"
       height="23.8125"
       id="rect1516" />
  </defs>
  <sodipodi:namedview
     id="base"
     pagecolor="#ffffff"
     bordercolor="#666666"
     borderopacity="1.0"
     inkscape:pageopacity="0.0"
     inkscape:pageshadow="2"
     inkscape:zoom="2.8"
     inkscape:cx="88.893011"
     inkscape:cy="45.650371"
     inkscape:document-units="px"
     inkscape:current-layer="layer1"
     inkscape:document-rotation="0"
     showgrid="true"
     units="px"
     inkscape:snap-bbox="true"
     inkscape:bbox-paths="true"
     inkscape:bbox-nodes="true"
     inkscape:snap-bbox-edge-midpoints="true"
     inkscape:snap-bbox-midpoints="true"
     inkscape:window-width="1920"
     inkscape:window-height="1043"
     inkscape:window-x="1920"
     inkscape:window-y="452"
     inkscape:window-maximized="1">
    <inkscape:grid
       type="xygrid"
       id="grid1470" />
  </sodipodi:namedview>
  <metadata
     id="metadata904">
    <rdf:RDF>
      <cc:Work
         rdf:about="">
        <dc:format>image/svg+xml</dc:format>
        <dc:type
           rdf:resource="http://purl.org/dc/dcmitype/StillImage" />
        <dc:title />
      </cc:Work>
    </rdf:RDF>
  </metadata>
  <g
     inkscape:groupmode="layer"
     id="layer2"
     inkscape:label="písmo"
     style="display:none"
     sodipodi:insensitive="true">
    <text
       xml:space="preserve"
       id="text1480"
       style="font-size:4.93888998px;line-height:1.25;font-family:Arial;-inkscape-font-specification:'Arial, Normal';text-align:center;white-space:pre;shape-inside:url(#rect1482);stroke-width:5.29166985;stroke-miterlimit:4;stroke-dasharray:none"
       x="7.4143639"
       y="0"
       transform="matrix(1,0,0,1.0033424,-0.22241834,3.9495131)"><tspan
         x="14.204803"
         y="12.444061"
         id="tspan108"><tspan
           style="font-style:normal;font-variant:normal;font-weight:normal;font-stretch:normal;font-size:12.34720039px;font-family:Arial;-inkscape-font-specification:'Arial, Normal';font-variant-ligatures:normal;font-variant-caps:normal;font-variant-numeric:normal;text-align:center;text-anchor:middle;stroke-width:5.29166985;stroke-miterlimit:4;stroke-dasharray:none"
           id="tspan106">Srážky</tspan></tspan></text>
  </g>
  <g
     inkscape:label="Vrstva 1"
     inkscape:groupmode="layer"
     id="layer1"
     style="display:inline"
     sodipodi:insensitive="true">
    <path
       id="rect1474"
       style="fill:#28170b;stroke-width:1.58749998"
       d="M 1.6666666e-8,3.1666666e-7 V 26.458333 H 1.3348023 64.811031 66.145833 V 3.1666666e-7 H 64.811031 1.3348023 Z M 1.3229167,1.322917 h 1.3348022 60.8303951 1.334802 v 23.8125 H 63.488114 2.6577189 1.3229167 Z"
       inkscape:connector-curvature="0" />
  </g>
  <g
     inkscape:groupmode="layer"
     id="g1514"
     inkscape:label="písmo copy 1"
     style="display:none">
    <g
       aria-label="Srážky"
       transform="matrix(1,0,0,1.0033424,-0.22241834,3.9495131)"
       id="text1512"
       style="font-size:4.93888998px;line-height:1.25;font-family:Arial;-inkscape-font-specification:'Arial, Normal';text-align:center;text-anchor:middle;white-space:pre;shape-inside:url(#rect1516);stroke-width:5.29166985;stroke-miterlimit:4;stroke-dasharray:none">
      <path
         d="m 14.759462,9.6044461 1.10329,-0.096463 q 0.07838,0.6631799 0.361735,1.0912329 0.289387,0.422023 0.892278,0.687295 0.60289,0.259243 1.356504,0.259243 0.669208,0 1.181665,-0.198954 0.512457,-0.198954 0.759643,-0.542602 0.253214,-0.349676 0.253214,-0.759642 0,-0.4159947 -0.241157,-0.723469 Q 20.185478,9.0075843 19.630819,8.7965726 19.275113,8.6579077 18.057274,8.3685202 16.839435,8.0731038 16.351094,7.8138608 15.718058,7.482271 15.404555,6.9939296 15.097081,6.4995592 15.097081,5.8906397 q 0,-0.6692086 0.379821,-1.2479837 0.379821,-0.5848039 1.109319,-0.8862492 0.729498,-0.3014453 1.621776,-0.3014453 0.982712,0 1.730296,0.319532 0.753613,0.3135032 1.15755,0.9284516 0.403937,0.6149485 0.434081,1.3926774 l -1.121376,0.084405 q -0.09043,-0.838018 -0.614949,-1.2660704 -0.518486,-0.4280523 -1.537371,-0.4280523 -1.061087,0 -1.549429,0.3918789 -0.482312,0.38585 -0.482312,0.9344805 0,0.4762836 0.343647,0.7837578 0.337619,0.3074743 1.760441,0.6330352 1.428851,0.3195321 1.959395,0.5606883 0.7717,0.3557055 1.139463,0.904336 0.367763,0.5426016 0.367763,1.2540125 0,0.705382 -0.403937,1.332388 -0.403936,0.620977 -1.163579,0.970654 -0.753613,0.343648 -1.700151,0.343648 -1.199753,0 -2.013655,-0.349677 -0.807873,-0.349677 -1.272099,-1.04903 -0.458197,-0.705382 -0.482313,-1.5916309 z"
         style="font-style:normal;font-variant:normal;font-weight:normal;font-stretch:normal;font-size:12.34720039px;font-family:Arial;-inkscape-font-specification:'Arial, Normal';font-variant-ligatures:normal;font-variant-caps:normal;font-variant-numeric:normal;text-align:center;text-anchor:middle;stroke-width:5.29166985;stroke-miterlimit:4;stroke-dasharray:none"
         id="path1518"
         inkscape:connector-curvature="0" />
      <path
         d="M 23.242134,12.444061 V 6.0413623 h 0.976682 v 0.970654 q 0.373793,-0.6812664 0.687296,-0.8983071 0.319532,-0.2170406 0.699353,-0.2170406 0.54863,0 1.115348,0.3496766 L 26.34702,7.2531725 q -0.397908,-0.2351273 -0.795815,-0.2351273 -0.355706,0 -0.639064,0.2170406 -0.283359,0.2110117 -0.403937,0.5908329 -0.180867,0.578775 -0.180867,1.2660703 v 3.352072 z"
         style="font-style:normal;font-variant:normal;font-weight:normal;font-stretch:normal;font-size:12.34720039px;font-family:Arial;-inkscape-font-specification:'Arial, Normal';font-variant-ligatures:normal;font-variant-caps:normal;font-variant-numeric:normal;text-align:center;text-anchor:middle;stroke-width:5.29166985;stroke-miterlimit:4;stroke-dasharray:none"
         id="path1520"
         inkscape:connector-curvature="0" />
      <path
         d="m 31.543938,11.654274 q -0.602891,0.512457 -1.163579,0.723469 -0.554659,0.211012 -1.193724,0.211012 -1.055058,0 -1.621775,-0.512457 -0.566718,-0.518486 -0.566718,-1.320331 0,-0.470255 0.211012,-0.8561045 0.217041,-0.391879 0.560688,-0.6270063 0.349677,-0.2351274 0.783758,-0.3557055 0.319532,-0.084405 0.964625,-0.1627805 1.314302,-0.1567515 1.935279,-0.3737922 0.006,-0.2230695 0.006,-0.2833586 0,-0.6631797 -0.307474,-0.9344805 -0.415995,-0.3677633 -1.235926,-0.3677633 -0.765671,0 -1.133434,0.2713008 -0.361735,0.2652719 -0.536573,0.9465383 L 27.185038,7.868121 q 0.144694,-0.6812664 0.476284,-1.097261 0.33159,-0.4220234 0.958596,-0.645093 0.627006,-0.2290984 1.452967,-0.2290984 0.819931,0 1.332388,0.192925 0.512457,0.192925 0.753613,0.4883414 0.241157,0.2893875 0.337619,0.7355266 0.05426,0.2773297 0.05426,1.0007985 v 1.4469375 q 0,1.5132554 0.06632,1.9171924 0.07235,0.397908 0.27733,0.765671 H 31.76098 q -0.168809,-0.337619 -0.21704,-0.789787 z m -0.09043,-2.4236201 q -0.590833,0.2411562 -1.772498,0.4099656 -0.669209,0.096462 -0.946539,0.2170406 -0.277329,0.1205781 -0.428052,0.3557059 -0.150723,0.229098 -0.150723,0.512457 0,0.434081 0.325561,0.723468 0.33159,0.289388 0.964625,0.289388 0.627007,0 1.115348,-0.271301 0.488342,-0.27733 0.71744,-0.753613 0.174838,-0.367763 0.174838,-1.0852033 z M 29.343387,5.2455467 30.145232,3.5574529 h 1.422821 l -1.326359,1.6880938 z"
         style="font-style:normal;font-variant:normal;font-weight:normal;font-stretch:normal;font-size:12.34720039px;font-family:Arial;-inkscape-font-specification:'Arial, Normal';font-variant-ligatures:normal;font-variant-caps:normal;font-variant-numeric:normal;text-align:center;text-anchor:middle;stroke-width:5.29166985;stroke-miterlimit:4;stroke-dasharray:none"
         id="path1522"
         inkscape:connector-curvature="0" />
      <path
         d="m 33.660084,12.444061 v -0.88022 L 37.735625,6.8854092 Q 37.0423,6.9215827 36.511757,6.9215827 H 33.90124 V 6.0413623 h 5.233091 v 0.7174399 l -3.466621,4.0634828 -0.669209,0.741556 q 0.729498,-0.05426 1.368562,-0.05426 h 2.960193 v 0.934481 z m 3.03254,-7.861694 0.66318,-1.0249141 H 38.5857 l -1.356504,1.6880938 h -1.15755 L 34.769403,3.5574529 h 1.241954 z"
         style="font-style:normal;font-variant:normal;font-weight:normal;font-stretch:normal;font-size:12.34720039px;font-family:Arial;-inkscape-font-specification:'Arial, Normal';font-variant-ligatures:normal;font-variant-caps:normal;font-variant-numeric:normal;text-align:center;text-anchor:middle;stroke-width:5.29166985;stroke-miterlimit:4;stroke-dasharray:none"
         id="path1524"
         inkscape:connector-curvature="0" />
      <path
         d="M 40.41246,12.444061 V 3.6056841 h 1.085203 v 5.0401658 l 2.568314,-2.6044876 h 1.404736 l -2.447736,2.3753892 2.694921,4.0273095 H 44.37948 L 42.263334,9.1703648 41.497663,9.9058914 v 2.5381696 z"
         style="font-style:normal;font-variant:normal;font-weight:normal;font-stretch:normal;font-size:12.34720039px;font-family:Arial;-inkscape-font-specification:'Arial, Normal';font-variant-ligatures:normal;font-variant-caps:normal;font-variant-numeric:normal;text-align:center;text-anchor:middle;stroke-width:5.29166985;stroke-miterlimit:4;stroke-dasharray:none"
         id="path1526"
         inkscape:connector-curvature="0" />
      <path
         d="m 46.531799,14.909884 -0.120578,-1.018885 q 0.355705,0.09646 0.620977,0.09646 0.361735,0 0.578775,-0.120578 0.217041,-0.120578 0.355706,-0.337619 0.102491,-0.16278 0.33159,-0.807873 0.03014,-0.09043 0.09646,-0.265272 L 45.965082,6.0413623 h 1.169608 l 1.332388,3.7077775 q 0.259243,0.7053822 0.464226,1.4831112 0.186896,-0.747585 0.446139,-1.4589956 l 1.368562,-3.7318931 h 1.085203 L 49.39553,12.552581 q -0.391879,1.055059 -0.60892,1.452967 -0.289387,0.536572 -0.66318,0.783758 -0.373792,0.253214 -0.892278,0.253214 -0.313503,0 -0.699353,-0.132636 z"
         style="font-style:normal;font-variant:normal;font-weight:normal;font-stretch:normal;font-size:12.34720039px;font-family:Arial;-inkscape-font-specification:'Arial, Normal';font-variant-ligatures:normal;font-variant-caps:normal;font-variant-numeric:normal;text-align:center;text-anchor:middle;stroke-width:5.29166985;stroke-miterlimit:4;stroke-dasharray:none"
         id="path1528"
         inkscape:connector-curvature="0" />
    </g>
  </g>
  <g
     inkscape:groupmode="layer"
     id="g1490"
     inkscape:label="písmo copy"
     style="display:none">
    <g
       aria-label="Tlak"
       transform="matrix(1,0,0,1.0033424,-0.22241834,3.9495131)"
       id="text1488"
       style="font-size:4.93889px;line-height:1.25;font-family:Arial;-inkscape-font-specification:'Arial, Normal';text-align:center;text-anchor:middle;white-space:pre;shape-inside:url(#rect1492);stroke-width:5.29167;stroke-miterlimit:4;stroke-dasharray:none">
      <path
         d="M 24.610695,12.444061 V 4.648685 H 21.698734 V 3.6056841 h 7.005589 V 4.648685 h -2.92402 v 7.795376 z"
         style="font-style:normal;font-variant:normal;font-weight:normal;font-stretch:normal;font-size:12.3472px;font-family:Arial;-inkscape-font-specification:'Arial, Normal';font-variant-ligatures:normal;font-variant-caps:normal;font-variant-numeric:normal;font-variant-east-asian:normal;text-align:center;text-anchor:middle;stroke-width:5.29167;stroke-miterlimit:4;stroke-dasharray:none"
         id="path1531" />
      <path
         d="M 29.741295,12.444061 V 3.6056841 h 1.085203 v 8.8383769 z"
         style="font-style:normal;font-variant:normal;font-weight:normal;font-stretch:normal;font-size:12.3472px;font-family:Arial;-inkscape-font-specification:'Arial, Normal';font-variant-ligatures:normal;font-variant-caps:normal;font-variant-numeric:normal;font-variant-east-asian:normal;text-align:center;text-anchor:middle;stroke-width:5.29167;stroke-miterlimit:4;stroke-dasharray:none"
         id="path1533" />
      <path
         d="m 36.686595,11.654274 q -0.60289,0.512457 -1.163579,0.723469 -0.554659,0.211012 -1.193723,0.211012 -1.055059,0 -1.621776,-0.512457 -0.566717,-0.518486 -0.566717,-1.320331 0,-0.470255 0.211011,-0.8561045 0.217041,-0.391879 0.560689,-0.6270063 0.349676,-0.2351274 0.783758,-0.3557055 0.319532,-0.084405 0.964625,-0.1627805 1.314301,-0.1567515 1.935279,-0.3737922 0.006,-0.2230695 0.006,-0.2833586 0,-0.6631797 -0.307475,-0.9344805 -0.415994,-0.3677633 -1.235926,-0.3677633 -0.765671,0 -1.133434,0.2713008 -0.361734,0.2652719 -0.536573,0.9465383 L 32.327696,7.868121 q 0.144694,-0.6812664 0.476283,-1.097261 0.33159,-0.4220234 0.958597,-0.645093 0.627006,-0.2290984 1.452966,-0.2290984 0.819931,0 1.332388,0.192925 0.512457,0.192925 0.753614,0.4883414 0.241156,0.2893875 0.337618,0.7355266 0.05426,0.2773297 0.05426,1.0007985 v 1.4469375 q 0,1.5132554 0.06632,1.9171924 0.07235,0.397908 0.277329,0.765671 h -1.133434 q -0.16881,-0.337619 -0.217042,-0.789787 z m -0.09043,-2.4236201 q -0.590833,0.2411562 -1.772499,0.4099656 -0.669208,0.096462 -0.946538,0.2170406 -0.27733,0.1205781 -0.428053,0.3557059 -0.150722,0.229098 -0.150722,0.512457 0,0.434081 0.325561,0.723468 0.33159,0.289388 0.964625,0.289388 0.627006,0 1.115347,-0.271301 0.488342,-0.27733 0.71744,-0.753613 0.174839,-0.367763 0.174839,-1.0852033 z"
         style="font-style:normal;font-variant:normal;font-weight:normal;font-stretch:normal;font-size:12.3472px;font-family:Arial;-inkscape-font-specification:'Arial, Normal';font-variant-ligatures:normal;font-variant-caps:normal;font-variant-numeric:normal;font-variant-east-asian:normal;text-align:center;text-anchor:middle;stroke-width:5.29167;stroke-miterlimit:4;stroke-dasharray:none"
         id="path1535" />
      <path
         d="M 39.381516,12.444061 V 3.6056841 h 1.085203 v 5.0401658 l 2.568315,-2.6044876 h 1.404735 l -2.447736,2.3753892 2.694921,4.0273095 H 43.348537 L 41.232391,9.1703648 40.466719,9.9058914 v 2.5381696 z"
         style="font-style:normal;font-variant:normal;font-weight:normal;font-stretch:normal;font-size:12.3472px;font-family:Arial;-inkscape-font-specification:'Arial, Normal';font-variant-ligatures:normal;font-variant-caps:normal;font-variant-numeric:normal;font-variant-east-asian:normal;text-align:center;text-anchor:middle;stroke-width:5.29167;stroke-miterlimit:4;stroke-dasharray:none"
         id="path1537" />
    </g>
  </g>
  <g
     inkscape:groupmode="layer"
     id="g1498"
     inkscape:label="písmo copy copy"
     style="display:none">
    <g
       aria-label="Světlo"
       transform="matrix(1,0,0,1.0033424,-0.22241834,3.9495131)"
       id="text1496"
       style="font-size:4.93888998px;line-height:1.25;font-family:Arial;-inkscape-font-specification:'Arial, Normal';text-align:center;text-anchor:middle;white-space:pre;shape-inside:url(#rect1500);stroke-width:5.29166985;stroke-miterlimit:4;stroke-dasharray:none">
      <path
         d="m 16.468657,9.6044461 1.10329,-0.096463 q 0.07838,0.6631799 0.361735,1.0912329 0.289387,0.422023 0.892278,0.687295 0.60289,0.259243 1.356504,0.259243 0.669208,0 1.181665,-0.198954 0.512457,-0.198954 0.759643,-0.542602 0.253214,-0.349676 0.253214,-0.759642 0,-0.4159947 -0.241157,-0.723469 Q 21.894673,9.0075843 21.340014,8.7965726 20.984308,8.6579077 19.766469,8.3685202 18.54863,8.0731038 18.060289,7.8138608 17.427253,7.482271 17.11375,6.9939296 16.806276,6.4995592 16.806276,5.8906397 q 0,-0.6692086 0.379821,-1.2479837 0.379821,-0.5848039 1.109319,-0.8862492 0.729498,-0.3014453 1.621776,-0.3014453 0.982712,0 1.730296,0.319532 0.753613,0.3135032 1.15755,0.9284516 0.403937,0.6149485 0.434081,1.3926774 l -1.121376,0.084405 q -0.09043,-0.838018 -0.614949,-1.2660704 -0.518486,-0.4280523 -1.537371,-0.4280523 -1.061088,0 -1.549429,0.3918789 -0.482312,0.38585 -0.482312,0.9344805 0,0.4762836 0.343647,0.7837578 0.337619,0.3074743 1.760441,0.6330352 1.428851,0.3195321 1.959394,0.5606883 0.771701,0.3557055 1.139464,0.904336 0.367763,0.5426016 0.367763,1.2540125 0,0.705382 -0.403937,1.332388 -0.403936,0.620977 -1.163579,0.970654 -0.753613,0.343648 -1.700151,0.343648 -1.199753,0 -2.013655,-0.349677 -0.807873,-0.349677 -1.272099,-1.04903 -0.458197,-0.705382 -0.482313,-1.5916309 z"
         style="font-style:normal;font-variant:normal;font-weight:normal;font-stretch:normal;font-size:12.34720039px;font-family:Arial;-inkscape-font-specification:'Arial, Normal';font-variant-ligatures:normal;font-variant-caps:normal;font-variant-numeric:normal;text-align:center;text-anchor:middle;stroke-width:5.29166985;stroke-miterlimit:4;stroke-dasharray:none"
         id="path1540"
         inkscape:connector-curvature="0" />
      <path
         d="M 26.741914,12.444061 24.306235,6.0413623 h 1.145493 l 1.37459,3.8343845 q 0.22307,0.6209772 0.409966,1.2901862 0.144694,-0.506428 0.403937,-1.2178393 l 1.422822,-3.9067314 h 1.115347 l -2.42362,6.4026987 z"
         style="font-style:normal;font-variant:normal;font-weight:normal;font-stretch:normal;font-size:12.34720039px;font-family:Arial;-inkscape-font-specification:'Arial, Normal';font-variant-ligatures:normal;font-variant-caps:normal;font-variant-numeric:normal;text-align:center;text-anchor:middle;stroke-width:5.29166985;stroke-miterlimit:4;stroke-dasharray:none"
         id="path1542"
         inkscape:connector-curvature="0" />
      <path
         d="m 35.520001,10.382175 1.121377,0.138665 q -0.265272,0.982712 -0.982712,1.525313 -0.71744,0.542602 -1.832787,0.542602 -1.404735,0 -2.230696,-0.862134 -0.819931,-0.868162 -0.819931,-2.4296492 0,-1.6157469 0.831989,-2.5080251 0.831989,-0.8922781 2.158349,-0.8922781 1.284157,0 2.098059,0.8741914 0.813903,0.8741915 0.813903,2.4597939 0,0.096462 -0.006,0.2893875 h -4.774894 q 0.06029,1.0550586 0.596861,1.6157466 0.536573,0.560689 1.338418,0.560689 0.596861,0 1.018885,-0.313504 0.422023,-0.313503 0.669208,-1.000798 z M 31.956918,8.6277632 h 3.575141 Q 35.459712,7.8198897 35.122094,7.415953 34.603608,6.7889467 33.777648,6.7889467 q -0.747585,0 -1.260042,0.5003993 -0.506428,0.5003992 -0.560688,1.3384172 z M 33.837937,4.582367 34.501116,3.5574529 h 1.229897 l -1.356504,1.6880938 h -1.15755 L 31.914715,3.5574529 h 1.241955 z"
         style="font-style:normal;font-variant:normal;font-weight:normal;font-stretch:normal;font-size:12.34720039px;font-family:Arial;-inkscape-font-specification:'Arial, Normal';font-variant-ligatures:normal;font-variant-caps:normal;font-variant-numeric:normal;text-align:center;text-anchor:middle;stroke-width:5.29166985;stroke-miterlimit:4;stroke-dasharray:none"
         id="path1544"
         inkscape:connector-curvature="0" />
      <path
         d="m 40.373271,11.473407 0.156752,0.958596 q -0.458197,0.09646 -0.819932,0.09646 -0.590833,0 -0.916393,-0.186896 -0.325561,-0.186897 -0.458197,-0.488342 -0.132636,-0.307474 -0.132636,-1.284157 V 6.8854092 H 37.407049 V 6.0413623 h 0.795816 V 4.4557599 l 1.079174,-0.6511218 v 2.2367242 h 1.091232 V 6.8854092 H 39.282039 V 10.62936 q 0,0.464226 0.05426,0.596862 0.06029,0.132636 0.186896,0.211012 0.132636,0.07837 0.373792,0.07837 0.180868,0 0.476284,-0.0422 z"
         style="font-style:normal;font-variant:normal;font-weight:normal;font-stretch:normal;font-size:12.34720039px;font-family:Arial;-inkscape-font-specification:'Arial, Normal';font-variant-ligatures:normal;font-variant-caps:normal;font-variant-numeric:normal;text-align:center;text-anchor:middle;stroke-width:5.29166985;stroke-miterlimit:4;stroke-dasharray:none"
         id="path1546"
         inkscape:connector-curvature="0" />
      <path
         d="M 41.410244,12.444061 V 3.6056841 h 1.085203 v 8.8383769 z"
         style="font-style:normal;font-variant:normal;font-weight:normal;font-stretch:normal;font-size:12.34720039px;font-family:Arial;-inkscape-font-specification:'Arial, Normal';font-variant-ligatures:normal;font-variant-caps:normal;font-variant-numeric:normal;text-align:center;text-anchor:middle;stroke-width:5.29166985;stroke-miterlimit:4;stroke-dasharray:none"
         id="path1548"
         inkscape:connector-curvature="0" />
      <path
         d="m 43.773575,9.2427117 q 0,-1.7785274 0.988741,-2.6346322 0.82596,-0.7114109 2.013655,-0.7114109 1.32033,0 2.158348,0.8681625 0.838018,0.8621336 0.838018,2.387447 0,1.2359259 -0.373792,1.9473369 -0.367763,0.705382 -1.079174,1.097261 -0.705382,0.391879 -1.5434,0.391879 -1.344447,0 -2.176436,-0.862134 -0.82596,-0.862134 -0.82596,-2.4839093 z m 1.115348,0 q 0,1.2298973 0.536573,1.8448453 0.536572,0.60892 1.350475,0.60892 0.807873,0 1.344446,-0.614949 0.536572,-0.614948 0.536572,-1.8749898 0,-1.1876945 -0.542601,-1.7966141 -0.536573,-0.6149485 -1.338417,-0.6149485 -0.813903,0 -1.350475,0.6089196 -0.536573,0.6089195 -0.536573,1.8388165 z"
         style="font-style:normal;font-variant:normal;font-weight:normal;font-stretch:normal;font-size:12.34720039px;font-family:Arial;-inkscape-font-specification:'Arial, Normal';font-variant-ligatures:normal;font-variant-caps:normal;font-variant-numeric:normal;text-align:center;text-anchor:middle;stroke-width:5.29166985;stroke-miterlimit:4;stroke-dasharray:none"
         id="path1550"
         inkscape:connector-curvature="0" />
    </g>
  </g>
  <g
     inkscape:groupmode="layer"
     id="g1506"
     inkscape:label="písmo copy copy copy"
     style="display:inline">
    <g
       aria-label="Informace"
       transform="matrix(1,0,0,1.0033424,-0.22241834,3.9495131)"
       id="text1504"
       style="font-size:4.93888998px;line-height:1.25;font-family:Arial;-inkscape-font-specification:'Arial, Normal';text-align:center;text-anchor:middle;white-space:pre;shape-inside:url(#rect1508);stroke-width:5.29166985;stroke-miterlimit:4;stroke-dasharray:none">
      <path
         d="M 6.7741757,12.444061 V 3.6056841 h 1.1696079 v 8.8383769 z"
         style="font-style:normal;font-variant:normal;font-weight:normal;font-stretch:normal;font-size:12.34720039px;font-family:Arial;-inkscape-font-specification:'Arial, Normal';font-variant-ligatures:normal;font-variant-caps:normal;font-variant-numeric:normal;text-align:center;text-anchor:middle;stroke-width:5.29166985;stroke-miterlimit:4;stroke-dasharray:none"
         id="path1553"
         inkscape:connector-curvature="0" />
      <path
         d="M 9.8670048,12.444061 V 6.0413623 h 0.9766832 v 0.9103649 q 0.705382,-1.0550586 2.03777,-1.0550586 0.578775,0 1.061088,0.2110117 0.488341,0.2049828 0.729497,0.5426016 0.241156,0.3376188 0.337619,0.8018446 0.06029,0.3014453 0.06029,1.0550586 V 12.444061 H 13.984748 V 8.5493874 q 0,-0.6631797 -0.126607,-0.9887406 Q 13.731534,7.2290569 13.405973,7.0361319 13.086441,6.837178 12.65236,6.837178 q -0.693325,0 -1.199753,0.4401102 -0.500399,0.4401101 -0.500399,1.670007 v 3.4967658 z"
         style="font-style:normal;font-variant:normal;font-weight:normal;font-stretch:normal;font-size:12.34720039px;font-family:Arial;-inkscape-font-specification:'Arial, Normal';font-variant-ligatures:normal;font-variant-caps:normal;font-variant-numeric:normal;text-align:center;text-anchor:middle;stroke-width:5.29166985;stroke-miterlimit:4;stroke-dasharray:none"
         id="path1555"
         inkscape:connector-curvature="0" />
      <path
         d="M 16.993172,12.444061 V 6.8854092 H 16.034576 V 6.0413623 h 0.958596 V 5.3600959 q 0,-0.645093 0.114549,-0.9585961 0.156752,-0.4220235 0.548631,-0.6812664 0.397907,-0.2652719 1.109318,-0.2652719 0.458197,0 1.012857,0.1085203 l -0.162781,0.9465383 q -0.337619,-0.060289 -0.639064,-0.060289 -0.49437,0 -0.699353,0.2110118 -0.204983,0.2110117 -0.204983,0.7897867 v 0.5908328 h 1.247984 v 0.8440469 h -1.247984 v 5.5586517 z"
         style="font-style:normal;font-variant:normal;font-weight:normal;font-stretch:normal;font-size:12.34720039px;font-family:Arial;-inkscape-font-specification:'Arial, Normal';font-variant-ligatures:normal;font-variant-caps:normal;font-variant-numeric:normal;text-align:center;text-anchor:middle;stroke-width:5.29166985;stroke-miterlimit:4;stroke-dasharray:none"
         id="path1557"
         inkscape:connector-curvature="0" />
      <path
         d="m 19.76044,9.2427117 q 0,-1.7785274 0.98874,-2.6346322 0.825961,-0.7114109 2.013655,-0.7114109 1.320331,0 2.158349,0.8681625 0.838018,0.8621336 0.838018,2.387447 0,1.2359259 -0.373793,1.9473369 -0.367763,0.705382 -1.079174,1.097261 -0.705382,0.391879 -1.5434,0.391879 -1.344446,0 -2.176435,-0.862134 -0.82596,-0.862134 -0.82596,-2.4839093 z m 1.115347,0 q 0,1.2298973 0.536573,1.8448453 0.536573,0.60892 1.350475,0.60892 0.807874,0 1.344446,-0.614949 0.536573,-0.614948 0.536573,-1.8749898 0,-1.1876945 -0.542602,-1.7966141 -0.536572,-0.6149485 -1.338417,-0.6149485 -0.813902,0 -1.350475,0.6089196 -0.536573,0.6089195 -0.536573,1.8388165 z"
         style="font-style:normal;font-variant:normal;font-weight:normal;font-stretch:normal;font-size:12.34720039px;font-family:Arial;-inkscape-font-specification:'Arial, Normal';font-variant-ligatures:normal;font-variant-caps:normal;font-variant-numeric:normal;text-align:center;text-anchor:middle;stroke-width:5.29166985;stroke-miterlimit:4;stroke-dasharray:none"
         id="path1559"
         inkscape:connector-curvature="0" />
      <path
         d="M 27.019243,12.444061 V 6.0413623 h 0.976683 v 0.970654 q 0.373792,-0.6812664 0.687295,-0.8983071 0.319532,-0.2170406 0.699353,-0.2170406 0.548631,0 1.115348,0.3496766 L 30.12413,7.2531725 q -0.397908,-0.2351273 -0.795816,-0.2351273 -0.355705,0 -0.639064,0.2170406 -0.283359,0.2110117 -0.403937,0.5908329 -0.180867,0.578775 -0.180867,1.2660703 v 3.352072 z"
         style="font-style:normal;font-variant:normal;font-weight:normal;font-stretch:normal;font-size:12.34720039px;font-family:Arial;-inkscape-font-specification:'Arial, Normal';font-variant-ligatures:normal;font-variant-caps:normal;font-variant-numeric:normal;text-align:center;text-anchor:middle;stroke-width:5.29166985;stroke-miterlimit:4;stroke-dasharray:none"
         id="path1561"
         inkscape:connector-curvature="0" />
      <path
         d="M 31.143016,12.444061 V 6.0413623 h 0.970654 v 0.8983071 q 0.301445,-0.4702547 0.801845,-0.7536133 0.500399,-0.2893875 1.139463,-0.2893875 0.711411,0 1.163579,0.2954164 0.458197,0.2954164 0.645093,0.8259602 0.759642,-1.1213766 1.977481,-1.1213766 0.952567,0 1.465024,0.5305438 0.512457,0.5245148 0.512457,1.6217758 V 12.444061 H 38.739438 V 8.4107226 q 0,-0.6511219 -0.10852,-0.9344805 Q 38.528426,7.1868546 38.251097,7.0120163 37.973767,6.837178 37.599975,6.837178 q -0.675238,0 -1.121377,0.452168 -0.446139,0.4461391 -0.446139,1.4348797 V 12.444061 H 34.947256 V 8.2841155 q 0,-0.7234687 -0.265272,-1.0852031 -0.265272,-0.3617344 -0.868162,-0.3617344 -0.458197,0 -0.850076,0.2411563 -0.38585,0.2411562 -0.560689,0.705382 -0.174838,0.4642258 -0.174838,1.3384172 v 3.3219275 z"
         style="font-style:normal;font-variant:normal;font-weight:normal;font-stretch:normal;font-size:12.34720039px;font-family:Arial;-inkscape-font-specification:'Arial, Normal';font-variant-ligatures:normal;font-variant-caps:normal;font-variant-numeric:normal;text-align:center;text-anchor:middle;stroke-width:5.29166985;stroke-miterlimit:4;stroke-dasharray:none"
         id="path1563"
         inkscape:connector-curvature="0" />
      <path
         d="m 45.606361,11.654274 q -0.602891,0.512457 -1.163579,0.723469 -0.55466,0.211012 -1.193724,0.211012 -1.055058,0 -1.621775,-0.512457 -0.566718,-0.518486 -0.566718,-1.320331 0,-0.470255 0.211012,-0.8561045 0.217041,-0.391879 0.560688,-0.6270063 0.349677,-0.2351274 0.783758,-0.3557055 0.319532,-0.084405 0.964625,-0.1627805 1.314302,-0.1567515 1.935279,-0.3737922 0.006,-0.2230695 0.006,-0.2833586 0,-0.6631797 -0.307474,-0.9344805 -0.415995,-0.3677633 -1.235926,-0.3677633 -0.765671,0 -1.133434,0.2713008 -0.361735,0.2652719 -0.536573,0.9465383 L 41.247461,7.868121 q 0.144694,-0.6812664 0.476284,-1.097261 0.33159,-0.4220234 0.958596,-0.645093 0.627006,-0.2290984 1.452967,-0.2290984 0.819931,0 1.332388,0.192925 0.512457,0.192925 0.753613,0.4883414 0.241157,0.2893875 0.337619,0.7355266 0.05426,0.2773297 0.05426,1.0007985 v 1.4469375 q 0,1.5132554 0.06632,1.9171924 0.07235,0.397908 0.27733,0.765671 h -1.133435 q -0.168809,-0.337619 -0.21704,-0.789787 z m -0.09043,-2.4236201 q -0.590833,0.2411562 -1.772498,0.4099656 -0.669209,0.096462 -0.946539,0.2170406 -0.277329,0.1205781 -0.428052,0.3557059 -0.150723,0.229098 -0.150723,0.512457 0,0.434081 0.325561,0.723468 0.33159,0.289388 0.964625,0.289388 0.627007,0 1.115348,-0.271301 0.488341,-0.27733 0.71744,-0.753613 0.174838,-0.367763 0.174838,-1.0852033 z"
         style="font-style:normal;font-variant:normal;font-weight:normal;font-stretch:normal;font-size:12.34720039px;font-family:Arial;-inkscape-font-specification:'Arial, Normal';font-variant-ligatures:normal;font-variant-caps:normal;font-variant-numeric:normal;text-align:center;text-anchor:middle;stroke-width:5.29166985;stroke-miterlimit:4;stroke-dasharray:none"
         id="path1565"
         inkscape:connector-curvature="0" />
      <path
         d="m 52.473285,10.098816 1.067117,0.138665 q -0.174839,1.10329 -0.898308,1.730296 -0.717439,0.620978 -1.766469,0.620978 -1.314302,0 -2.116146,-0.856105 -0.795816,-0.862134 -0.795816,-2.4658227 0,-1.0369719 0.343648,-1.8147008 0.343647,-0.777729 1.043001,-1.163579 0.705382,-0.3918789 1.531342,-0.3918789 1.043001,0 1.70618,0.5305438 0.66318,0.5245148 0.850076,1.4951688 l -1.055058,0.1627804 q -0.150723,-0.645093 -0.536573,-0.9706539 -0.379821,-0.325561 -0.922423,-0.325561 -0.819931,0 -1.332388,0.5908329 -0.512457,0.5848039 -0.512457,1.8569032 0,1.2901862 0.49437,1.8749902 0.49437,0.584804 1.290186,0.584804 0.639064,0 1.067117,-0.391879 0.428052,-0.391879 0.542601,-1.205782 z"
         style="font-style:normal;font-variant:normal;font-weight:normal;font-stretch:normal;font-size:12.34720039px;font-family:Arial;-inkscape-font-specification:'Arial, Normal';font-variant-ligatures:normal;font-variant-caps:normal;font-variant-numeric:normal;text-align:center;text-anchor:middle;stroke-width:5.29166985;stroke-miterlimit:4;stroke-dasharray:none"
         id="path1567"
         inkscape:connector-curvature="0" />
      <path
         d="m 58.851871,10.382175 1.121377,0.138665 q -0.265272,0.982712 -0.982712,1.525313 -0.71744,0.542602 -1.832788,0.542602 -1.404735,0 -2.230695,-0.862134 -0.819931,-0.868162 -0.819931,-2.4296492 0,-1.6157469 0.831989,-2.5080251 0.831989,-0.8922781 2.158348,-0.8922781 1.284157,0 2.09806,0.8741914 0.813902,0.8741915 0.813902,2.4597939 0,0.096462 -0.006,0.2893875 h -4.774894 q 0.06029,1.0550586 0.596862,1.6157466 0.536573,0.560689 1.338417,0.560689 0.596862,0 1.018885,-0.313504 0.422024,-0.313503 0.669209,-1.000798 z M 55.288787,8.6277632 h 3.575142 Q 58.791582,7.8198897 58.453963,7.415953 57.935477,6.7889467 57.109517,6.7889467 q -0.747584,0 -1.260041,0.5003993 -0.506429,0.5003992 -0.560689,1.3384172 z"
         style="font-style:normal;font-variant:normal;font-weight:normal;font-stretch:normal;font-size:12.34720039px;font-family:Arial;-inkscape-font-specification:'Arial, Normal';font-variant-ligatures:normal;font-variant-caps:normal;font-variant-numeric:normal;text-align:center;text-anchor:middle;stroke-width:5.29166985;stroke-miterlimit:4;stroke-dasharray:none"
         id="path1569"
         inkscape:connector-curvature="0" />
    </g>
  </g>
</svg>
