<?xml version="1.0" encoding="UTF-8" standalone="no"?>
<svg
   xmlns:dc="http://purl.org/dc/elements/1.1/"
   xmlns:cc="http://creativecommons.org/ns#"
   xmlns:rdf="http://www.w3.org/1999/02/22-rdf-syntax-ns#"
   xmlns:svg="http://www.w3.org/2000/svg"
   xmlns="http://www.w3.org/2000/svg"
   xmlns:sodipodi="http://sodipodi.sourceforge.net/DTD/sodipodi-0.dtd"
   xmlns:inkscape="http://www.inkscape.org/namespaces/inkscape"
   width="250"
   height="100"
   viewBox="0 0 66.145832 26.458334"
   version="1.1"
   id="svg907"
   inkscape:version="0.92.5 (2060ec1f9f, 2020-04-08)"
   sodipodi:docname="vlhkost.svg">
  <defs
     id="defs901">
    <rect
       x="1.3229167"
       y="1.3229167"
       width="63.5"
       height="23.8125"
       id="rect1482" />
    <rect
       x="1.3229167"
       y="1.3229167"
       width="63.5"
       height="23.8125"
       id="rect1492" />
    <rect
       x="1.3229167"
       y="1.3229167"
       width="63.5"
       height="23.8125"
       id="rect1500" />
    <rect
       x="1.3229167"
       y="1.3229167"
       width="63.5"
       height="23.8125"
       id="rect1508" />
    <rect
       x="1.3229167"
       y="1.3229167"
       width="63.5"
       height="23.8125"
       id="rect1516" />
  </defs>
  <sodipodi:namedview
     id="base"
     pagecolor="#ffffff"
     bordercolor="#666666"
     borderopacity="1.0"
     inkscape:pageopacity="0.0"
     inkscape:pageshadow="2"
     inkscape:zoom="0.98994949"
     inkscape:cx="-173.31918"
     inkscape:cy="61.144623"
     inkscape:document-units="px"
     inkscape:current-layer="layer3"
     inkscape:document-rotation="0"
     showgrid="true"
     units="px"
     inkscape:snap-bbox="true"
     inkscape:bbox-paths="true"
     inkscape:bbox-nodes="true"
     inkscape:snap-bbox-edge-midpoints="true"
     inkscape:snap-bbox-midpoints="true"
     inkscape:window-width="1920"
     inkscape:window-height="1016"
     inkscape:window-x="0"
     inkscape:window-y="27"
     inkscape:window-maximized="1">
    <inkscape:grid
       type="xygrid"
       id="grid1470" />
  </sodipodi:namedview>
  <metadata
     id="metadata904">
    <rdf:RDF>
      <cc:Work
         rdf:about="">
        <dc:format>image/svg+xml</dc:format>
        <dc:type
           rdf:resource="http://purl.org/dc/dcmitype/StillImage" />
        <dc:title></dc:title>
      </cc:Work>
    </rdf:RDF>
  </metadata>
  <g
     inkscape:groupmode="layer"
     id="layer2"
     inkscape:label="písmo"
     style="display:none"
     sodipodi:insensitive="true">
    <text
       xml:space="preserve"
       id="text1480"
       style="font-size:4.93888998px;line-height:1.25;font-family:Arial;-inkscape-font-specification:'Arial, Normal';text-align:center;white-space:pre;shape-inside:url(#rect1482);stroke-width:5.29166985;stroke-miterlimit:4;stroke-dasharray:none"
       x="7.4143639"
       y="0"
       transform="matrix(1,0,0,1.0033424,-0.22241834,3.9495131)"><tspan
         x="14.204803"
         y="12.444061"
         id="tspan369"><tspan
           style="font-style:normal;font-variant:normal;font-weight:normal;font-stretch:normal;font-size:12.34720039px;font-family:Arial;-inkscape-font-specification:'Arial, Normal';font-variant-ligatures:normal;font-variant-caps:normal;font-variant-numeric:normal;text-align:center;text-anchor:middle;stroke-width:5.29166985;stroke-miterlimit:4;stroke-dasharray:none"
           id="tspan367">Srážky</tspan></tspan></text>
  </g>
  <g
     inkscape:label="Vrstva 1"
     inkscape:groupmode="layer"
     id="layer1"
     style="display:inline">
    <path
       id="rect1474"
       style="fill:#28170b;stroke-width:1.58749998"
       d="M 1.6666666e-8,3.1666666e-7 V 26.458333 H 1.3348023 64.811031 66.145833 V 3.1666666e-7 H 64.811031 1.3348023 Z M 1.3229167,1.322917 h 1.3348022 60.8303951 1.334802 v 23.8125 H 63.488114 2.6577189 1.3229167 Z"
       inkscape:connector-curvature="0" />
  </g>
  <g
     inkscape:groupmode="layer"
     id="g1514"
     inkscape:label="písmo copy 1"
     style="display:none">
    <g
       aria-label="Srážky"
       transform="matrix(1,0,0,1.0033424,-0.22241834,3.9495131)"
       id="text1512"
       style="font-size:4.93888998px;line-height:1.25;font-family:Arial;-inkscape-font-specification:'Arial, Normal';text-align:center;text-anchor:middle;white-space:pre;shape-inside:url(#rect1516);stroke-width:5.29166985;stroke-miterlimit:4;stroke-dasharray:none">
      <path
         d="m 14.759462,9.6044461 1.10329,-0.096463 q 0.07838,0.6631799 0.361735,1.0912329 0.289387,0.422023 0.892278,0.687295 0.60289,0.259243 1.356504,0.259243 0.669208,0 1.181665,-0.198954 0.512457,-0.198954 0.759643,-0.542602 0.253214,-0.349676 0.253214,-0.759642 0,-0.4159947 -0.241157,-0.723469 Q 20.185478,9.0075843 19.630819,8.7965726 19.275113,8.6579077 18.057274,8.3685202 16.839435,8.0731038 16.351094,7.8138608 15.718058,7.482271 15.404555,6.9939296 15.097081,6.4995592 15.097081,5.8906397 q 0,-0.6692086 0.379821,-1.2479837 0.379821,-0.5848039 1.109319,-0.8862492 0.729498,-0.3014453 1.621776,-0.3014453 0.982712,0 1.730296,0.319532 0.753613,0.3135032 1.15755,0.9284516 0.403937,0.6149485 0.434081,1.3926774 l -1.121376,0.084405 q -0.09043,-0.838018 -0.614949,-1.2660704 -0.518486,-0.4280523 -1.537371,-0.4280523 -1.061087,0 -1.549429,0.3918789 -0.482312,0.38585 -0.482312,0.9344805 0,0.4762836 0.343647,0.7837578 0.337619,0.3074743 1.760441,0.6330352 1.428851,0.3195321 1.959395,0.5606883 0.7717,0.3557055 1.139463,0.904336 0.367763,0.5426016 0.367763,1.2540125 0,0.705382 -0.403937,1.332388 -0.403936,0.620977 -1.163579,0.970654 -0.753613,0.343648 -1.700151,0.343648 -1.199753,0 -2.013655,-0.349677 -0.807873,-0.349677 -1.272099,-1.04903 -0.458197,-0.705382 -0.482313,-1.5916309 z"
         style="font-style:normal;font-variant:normal;font-weight:normal;font-stretch:normal;font-size:12.34720039px;font-family:Arial;-inkscape-font-specification:'Arial, Normal';font-variant-ligatures:normal;font-variant-caps:normal;font-variant-numeric:normal;text-align:center;text-anchor:middle;stroke-width:5.29166985;stroke-miterlimit:4;stroke-dasharray:none"
         id="path1518"
         inkscape:connector-curvature="0" />
      <path
         d="M 23.242134,12.444061 V 6.0413623 h 0.976682 v 0.970654 q 0.373793,-0.6812664 0.687296,-0.8983071 0.319532,-0.2170406 0.699353,-0.2170406 0.54863,0 1.115348,0.3496766 L 26.34702,7.2531725 q -0.397908,-0.2351273 -0.795815,-0.2351273 -0.355706,0 -0.639064,0.2170406 -0.283359,0.2110117 -0.403937,0.5908329 -0.180867,0.578775 -0.180867,1.2660703 v 3.352072 z"
         style="font-style:normal;font-variant:normal;font-weight:normal;font-stretch:normal;font-size:12.34720039px;font-family:Arial;-inkscape-font-specification:'Arial, Normal';font-variant-ligatures:normal;font-variant-caps:normal;font-variant-numeric:normal;text-align:center;text-anchor:middle;stroke-width:5.29166985;stroke-miterlimit:4;stroke-dasharray:none"
         id="path1520"
         inkscape:connector-curvature="0" />
      <path
         d="m 31.543938,11.654274 q -0.602891,0.512457 -1.163579,0.723469 -0.554659,0.211012 -1.193724,0.211012 -1.055058,0 -1.621775,-0.512457 -0.566718,-0.518486 -0.566718,-1.320331 0,-0.470255 0.211012,-0.8561045 0.217041,-0.391879 0.560688,-0.6270063 0.349677,-0.2351274 0.783758,-0.3557055 0.319532,-0.084405 0.964625,-0.1627805 1.314302,-0.1567515 1.935279,-0.3737922 0.006,-0.2230695 0.006,-0.2833586 0,-0.6631797 -0.307474,-0.9344805 -0.415995,-0.3677633 -1.235926,-0.3677633 -0.765671,0 -1.133434,0.2713008 -0.361735,0.2652719 -0.536573,0.9465383 L 27.185038,7.868121 q 0.144694,-0.6812664 0.476284,-1.097261 0.33159,-0.4220234 0.958596,-0.645093 0.627006,-0.2290984 1.452967,-0.2290984 0.819931,0 1.332388,0.192925 0.512457,0.192925 0.753613,0.4883414 0.241157,0.2893875 0.337619,0.7355266 0.05426,0.2773297 0.05426,1.0007985 v 1.4469375 q 0,1.5132554 0.06632,1.9171924 0.07235,0.397908 0.27733,0.765671 H 31.76098 q -0.168809,-0.337619 -0.21704,-0.789787 z m -0.09043,-2.4236201 q -0.590833,0.2411562 -1.772498,0.4099656 -0.669209,0.096462 -0.946539,0.2170406 -0.277329,0.1205781 -0.428052,0.3557059 -0.150723,0.229098 -0.150723,0.512457 0,0.434081 0.325561,0.723468 0.33159,0.289388 0.964625,0.289388 0.627007,0 1.115348,-0.271301 0.488342,-0.27733 0.71744,-0.753613 0.174838,-0.367763 0.174838,-1.0852033 z M 29.343387,5.2455467 30.145232,3.5574529 h 1.422821 l -1.326359,1.6880938 z"
         style="font-style:normal;font-variant:normal;font-weight:normal;font-stretch:normal;font-size:12.34720039px;font-family:Arial;-inkscape-font-specification:'Arial, Normal';font-variant-ligatures:normal;font-variant-caps:normal;font-variant-numeric:normal;text-align:center;text-anchor:middle;stroke-width:5.29166985;stroke-miterlimit:4;stroke-dasharray:none"
         id="path1522"
         inkscape:connector-curvature="0" />
      <path
         d="m 33.660084,12.444061 v -0.88022 L 37.735625,6.8854092 Q 37.0423,6.9215827 36.511757,6.9215827 H 33.90124 V 6.0413623 h 5.233091 v 0.7174399 l -3.466621,4.0634828 -0.669209,0.741556 q 0.729498,-0.05426 1.368562,-0.05426 h 2.960193 v 0.934481 z m 3.03254,-7.861694 0.66318,-1.0249141 H 38.5857 l -1.356504,1.6880938 h -1.15755 L 34.769403,3.5574529 h 1.241954 z"
         style="font-style:normal;font-variant:normal;font-weight:normal;font-stretch:normal;font-size:12.34720039px;font-family:Arial;-inkscape-font-specification:'Arial, Normal';font-variant-ligatures:normal;font-variant-caps:normal;font-variant-numeric:normal;text-align:center;text-anchor:middle;stroke-width:5.29166985;stroke-miterlimit:4;stroke-dasharray:none"
         id="path1524"
         inkscape:connector-curvature="0" />
      <path
         d="M 40.41246,12.444061 V 3.6056841 h 1.085203 v 5.0401658 l 2.568314,-2.6044876 h 1.404736 l -2.447736,2.3753892 2.694921,4.0273095 H 44.37948 L 42.263334,9.1703648 41.497663,9.9058914 v 2.5381696 z"
         style="font-style:normal;font-variant:normal;font-weight:normal;font-stretch:normal;font-size:12.34720039px;font-family:Arial;-inkscape-font-specification:'Arial, Normal';font-variant-ligatures:normal;font-variant-caps:normal;font-variant-numeric:normal;text-align:center;text-anchor:middle;stroke-width:5.29166985;stroke-miterlimit:4;stroke-dasharray:none"
         id="path1526"
         inkscape:connector-curvature="0" />
      <path
         d="m 46.531799,14.909884 -0.120578,-1.018885 q 0.355705,0.09646 0.620977,0.09646 0.361735,0 0.578775,-0.120578 0.217041,-0.120578 0.355706,-0.337619 0.102491,-0.16278 0.33159,-0.807873 0.03014,-0.09043 0.09646,-0.265272 L 45.965082,6.0413623 h 1.169608 l 1.332388,3.7077775 q 0.259243,0.7053822 0.464226,1.4831112 0.186896,-0.747585 0.446139,-1.4589956 l 1.368562,-3.7318931 h 1.085203 L 49.39553,12.552581 q -0.391879,1.055059 -0.60892,1.452967 -0.289387,0.536572 -0.66318,0.783758 -0.373792,0.253214 -0.892278,0.253214 -0.313503,0 -0.699353,-0.132636 z"
         style="font-style:normal;font-variant:normal;font-weight:normal;font-stretch:normal;font-size:12.34720039px;font-family:Arial;-inkscape-font-specification:'Arial, Normal';font-variant-ligatures:normal;font-variant-caps:normal;font-variant-numeric:normal;text-align:center;text-anchor:middle;stroke-width:5.29166985;stroke-miterlimit:4;stroke-dasharray:none"
         id="path1528"
         inkscape:connector-curvature="0" />
    </g>
  </g>
  <g
     inkscape:groupmode="layer"
     id="g1490"
     inkscape:label="písmo copy"
     style="display:none">
    <g
       aria-label="Tlak"
       transform="matrix(1,0,0,1.0033424,-0.22241834,3.9495131)"
       id="text1488"
       style="font-size:4.93888998px;line-height:1.25;font-family:Arial;-inkscape-font-specification:'Arial, Normal';text-align:center;text-anchor:middle;white-space:pre;shape-inside:url(#rect1492);stroke-width:5.29166985;stroke-miterlimit:4;stroke-dasharray:none">
      <path
         d="M 24.610695,12.444061 V 4.648685 H 21.698734 V 3.6056841 h 7.005589 V 4.648685 h -2.92402 v 7.795376 z"
         style="font-style:normal;font-variant:normal;font-weight:normal;font-stretch:normal;font-size:12.34720039px;font-family:Arial;-inkscape-font-specification:'Arial, Normal';font-variant-ligatures:normal;font-variant-caps:normal;font-variant-numeric:normal;text-align:center;text-anchor:middle;stroke-width:5.29166985;stroke-miterlimit:4;stroke-dasharray:none"
         id="path1531"
         inkscape:connector-curvature="0" />
      <path
         d="M 29.741295,12.444061 V 3.6056841 h 1.085203 v 8.8383769 z"
         style="font-style:normal;font-variant:normal;font-weight:normal;font-stretch:normal;font-size:12.34720039px;font-family:Arial;-inkscape-font-specification:'Arial, Normal';font-variant-ligatures:normal;font-variant-caps:normal;font-variant-numeric:normal;text-align:center;text-anchor:middle;stroke-width:5.29166985;stroke-miterlimit:4;stroke-dasharray:none"
         id="path1533"
         inkscape:connector-curvature="0" />
      <path
         d="m 36.686595,11.654274 q -0.60289,0.512457 -1.163579,0.723469 -0.554659,0.211012 -1.193723,0.211012 -1.055059,0 -1.621776,-0.512457 -0.566717,-0.518486 -0.566717,-1.320331 0,-0.470255 0.211011,-0.8561045 0.217041,-0.391879 0.560689,-0.6270063 0.349676,-0.2351274 0.783758,-0.3557055 0.319532,-0.084405 0.964625,-0.1627805 1.314301,-0.1567515 1.935279,-0.3737922 0.006,-0.2230695 0.006,-0.2833586 0,-0.6631797 -0.307475,-0.9344805 -0.415994,-0.3677633 -1.235926,-0.3677633 -0.765671,0 -1.133434,0.2713008 -0.361734,0.2652719 -0.536573,0.9465383 L 32.327696,7.868121 q 0.144694,-0.6812664 0.476283,-1.097261 0.33159,-0.4220234 0.958597,-0.645093 0.627006,-0.2290984 1.452966,-0.2290984 0.819931,0 1.332388,0.192925 0.512457,0.192925 0.753614,0.4883414 0.241156,0.2893875 0.337618,0.7355266 0.05426,0.2773297 0.05426,1.0007985 v 1.4469375 q 0,1.5132554 0.06632,1.9171924 0.07235,0.397908 0.277329,0.765671 h -1.133434 q -0.16881,-0.337619 -0.217042,-0.789787 z m -0.09043,-2.4236201 q -0.590833,0.2411562 -1.772499,0.4099656 -0.669208,0.096462 -0.946538,0.2170406 -0.27733,0.1205781 -0.428053,0.3557059 -0.150722,0.229098 -0.150722,0.512457 0,0.434081 0.325561,0.723468 0.33159,0.289388 0.964625,0.289388 0.627006,0 1.115347,-0.271301 0.488342,-0.27733 0.71744,-0.753613 0.174839,-0.367763 0.174839,-1.0852033 z"
         style="font-style:normal;font-variant:normal;font-weight:normal;font-stretch:normal;font-size:12.34720039px;font-family:Arial;-inkscape-font-specification:'Arial, Normal';font-variant-ligatures:normal;font-variant-caps:normal;font-variant-numeric:normal;text-align:center;text-anchor:middle;stroke-width:5.29166985;stroke-miterlimit:4;stroke-dasharray:none"
         id="path1535"
         inkscape:connector-curvature="0" />
      <path
         d="M 39.381516,12.444061 V 3.6056841 h 1.085203 v 5.0401658 l 2.568315,-2.6044876 h 1.404735 l -2.447736,2.3753892 2.694921,4.0273095 H 43.348537 L 41.232391,9.1703648 40.466719,9.9058914 v 2.5381696 z"
         style="font-style:normal;font-variant:normal;font-weight:normal;font-stretch:normal;font-size:12.34720039px;font-family:Arial;-inkscape-font-specification:'Arial, Normal';font-variant-ligatures:normal;font-variant-caps:normal;font-variant-numeric:normal;text-align:center;text-anchor:middle;stroke-width:5.29166985;stroke-miterlimit:4;stroke-dasharray:none"
         id="path1537"
         inkscape:connector-curvature="0" />
    </g>
  </g>
  <g
     inkscape:groupmode="layer"
     id="g1498"
     inkscape:label="písmo copy copy"
     style="display:none">
    <text
       xml:space="preserve"
       id="text1496"
       style="font-size:4.93888998px;line-height:1.25;font-family:Arial;-inkscape-font-specification:'Arial, Normal';text-align:center;white-space:pre;shape-inside:url(#rect1500);stroke-width:5.29166985;stroke-miterlimit:4;stroke-dasharray:none"
       x="7.4143639"
       y="0"
       transform="matrix(1,0,0,1.0033424,-0.22241834,3.9495131)"><tspan
         x="15.913998"
         y="12.444061"
         id="tspan392"><tspan
           style="font-style:normal;font-variant:normal;font-weight:normal;font-stretch:normal;font-size:12.34720039px;font-family:Arial;-inkscape-font-specification:'Arial, Normal';font-variant-ligatures:normal;font-variant-caps:normal;font-variant-numeric:normal;text-align:center;text-anchor:middle;stroke-width:5.29166985;stroke-miterlimit:4;stroke-dasharray:none"
           id="tspan390">Světlo</tspan></tspan></text>
  </g>
  <g
     inkscape:groupmode="layer"
     id="g1506"
     inkscape:label="písmo copy copy copy"
     style="display:none">
    <text
       xml:space="preserve"
       id="text1504"
       style="font-size:4.93888998px;line-height:1.25;font-family:Arial;-inkscape-font-specification:'Arial, Normal';text-align:center;white-space:pre;shape-inside:url(#rect1508);stroke-width:5.29166985;stroke-miterlimit:4;stroke-dasharray:none"
       x="7.4143639"
       y="0"
       transform="matrix(1,0,0,1.0033424,-0.22241834,3.9495131)"><tspan
         x="5.6226544"
         y="12.444061"
         id="tspan398"><tspan
           style="font-style:normal;font-variant:normal;font-weight:normal;font-stretch:normal;font-size:12.34720039px;font-family:Arial;-inkscape-font-specification:'Arial, Normal';font-variant-ligatures:normal;font-variant-caps:normal;font-variant-numeric:normal;text-align:center;text-anchor:middle;stroke-width:5.29166985;stroke-miterlimit:4;stroke-dasharray:none"
           id="tspan396">Informace</tspan></tspan></text>
  </g>
  <g
     inkscape:groupmode="layer"
     id="layer3"
     inkscape:label="písmo copy copy copy 1"
     style="display:inline">
    <g
       aria-label="Vlhkost"
       style="font-style:normal;font-variant:normal;font-weight:normal;font-stretch:normal;font-size:12.34722233px;line-height:1.25;font-family:Arial;-inkscape-font-specification:'Arial, Normal';font-variant-ligatures:normal;font-variant-caps:normal;font-variant-numeric:normal;font-feature-settings:normal;text-align:start;letter-spacing:0px;word-spacing:0px;writing-mode:lr-tb;text-anchor:start;fill:#000000;fill-opacity:1;stroke:none;stroke-width:0.26458332"
       id="text3875">
      <path
         d="M 16.324585,17.576017 12.90016,8.7376248 h 1.266072 l 2.297018,6.4207972 q 0.27733,0.771701 0.464226,1.44694 0.204984,-0.72347 0.476285,-1.44694 l 2.387451,-6.4207972 h 1.193726 l -3.460599,8.8383922 z"
         style="font-style:normal;font-variant:normal;font-weight:normal;font-stretch:normal;font-size:12.34722233px;font-family:Arial;-inkscape-font-specification:'Arial, Normal';font-variant-ligatures:normal;font-variant-caps:normal;font-variant-numeric:normal;font-feature-settings:normal;text-align:start;writing-mode:lr-tb;text-anchor:start;stroke-width:0.26458332"
         id="path3877" />
      <path
         d="M 21.871189,17.576017 V 8.7376248 h 1.085205 v 8.8383922 z"
         style="font-style:normal;font-variant:normal;font-weight:normal;font-stretch:normal;font-size:12.34722233px;font-family:Arial;-inkscape-font-specification:'Arial, Normal';font-variant-ligatures:normal;font-variant-caps:normal;font-variant-numeric:normal;font-feature-settings:normal;text-align:start;writing-mode:lr-tb;text-anchor:start;stroke-width:0.26458332"
         id="path3879" />
      <path
         d="M 24.638462,17.576017 V 8.7376248 h 1.085205 v 3.1712102 q 0.759644,-0.880222 1.917196,-0.880222 0.711412,0 1.235928,0.283359 0.524516,0.277331 0.747586,0.771702 0.229098,0.494371 0.229098,1.434882 v 4.057461 H 28.76827 v -4.057461 q 0,-0.813904 -0.355706,-1.181668 -0.349677,-0.373792 -0.994771,-0.373792 -0.482313,0 -0.910367,0.253214 -0.422024,0.247186 -0.602891,0.675239 -0.180868,0.428053 -0.180868,1.181668 v 3.5028 z"
         style="font-style:normal;font-variant:normal;font-weight:normal;font-stretch:normal;font-size:12.34722233px;font-family:Arial;-inkscape-font-specification:'Arial, Normal';font-variant-ligatures:normal;font-variant-caps:normal;font-variant-numeric:normal;font-feature-settings:normal;text-align:start;writing-mode:lr-tb;text-anchor:start;stroke-width:0.26458332"
         id="path3881" />
      <path
         d="M 31.511429,17.576017 V 8.7376248 h 1.085205 V 13.7778 l 2.568318,-2.604493 h 1.404738 l -2.44774,2.375394 2.694926,4.027316 h -1.33842 l -2.11615,-3.273702 -0.765672,0.735528 v 2.538174 z"
         style="font-style:normal;font-variant:normal;font-weight:normal;font-stretch:normal;font-size:12.34722233px;font-family:Arial;-inkscape-font-specification:'Arial, Normal';font-variant-ligatures:normal;font-variant-caps:normal;font-variant-numeric:normal;font-feature-settings:normal;text-align:start;writing-mode:lr-tb;text-anchor:start;stroke-width:0.26458332"
         id="path3883" />
      <path
         d="m 37.275073,14.374662 q 0,-1.77853 0.988742,-2.634636 0.825962,-0.711413 2.013659,-0.711413 1.320333,0 2.158352,0.868164 0.83802,0.862136 0.83802,2.387452 0,1.235928 -0.373793,1.94734 -0.367764,0.705383 -1.079177,1.097263 -0.705383,0.391879 -1.543402,0.391879 -1.344449,0 -2.176439,-0.862135 -0.825962,-0.862135 -0.825962,-2.483914 z m 1.11535,0 q 0,1.229899 0.536573,1.844849 0.536574,0.608921 1.350478,0.608921 0.807875,0 1.344448,-0.61495 0.536574,-0.614949 0.536574,-1.874993 0,-1.187697 -0.542603,-1.796617 -0.536573,-0.61495 -1.338419,-0.61495 -0.813904,0 -1.350478,0.608921 -0.536573,0.60892 -0.536573,1.838819 z"
         style="font-style:normal;font-variant:normal;font-weight:normal;font-stretch:normal;font-size:12.34722233px;font-family:Arial;-inkscape-font-specification:'Arial, Normal';font-variant-ligatures:normal;font-variant-caps:normal;font-variant-numeric:normal;font-feature-settings:normal;text-align:start;writing-mode:lr-tb;text-anchor:start;stroke-width:0.26458332"
         id="path3885" />
      <path
         d="m 44.111864,15.664851 1.073147,-0.16881 q 0.09043,0.645094 0.5004,0.988742 0.415996,0.343649 1.157553,0.343649 0.747585,0 1.10932,-0.301446 0.361735,-0.307475 0.361735,-0.717441 0,-0.367764 -0.319532,-0.578776 -0.22307,-0.144694 -1.109321,-0.367764 -1.193726,-0.301446 -1.657952,-0.518487 -0.458198,-0.22307 -0.699355,-0.608921 -0.235127,-0.391879 -0.235127,-0.862135 0,-0.428053 0.192925,-0.789788 0.198954,-0.367764 0.536574,-0.608921 0.253214,-0.186896 0.687296,-0.313503 0.440111,-0.132637 0.940511,-0.132637 0.753615,0 1.320333,0.217041 0.572747,0.217041 0.844048,0.590834 0.271302,0.367764 0.373793,0.988743 l -1.061089,0.144694 q -0.07235,-0.494372 -0.422024,-0.771702 -0.343649,-0.27733 -0.976685,-0.27733 -0.747586,0 -1.067118,0.247186 -0.319533,0.247185 -0.319533,0.578776 0,0.211012 0.132636,0.379822 0.132637,0.174838 0.415996,0.289388 0.16278,0.06029 0.958597,0.27733 1.151524,0.307475 1.603692,0.506429 0.458198,0.192925 0.717442,0.566718 0.259243,0.373793 0.259243,0.928453 0,0.542603 -0.319533,1.024916 -0.313503,0.476285 -0.910366,0.741557 -0.596863,0.259243 -1.350478,0.259243 -1.247985,0 -1.905137,-0.518486 -0.651123,-0.518487 -0.831991,-1.537374 z"
         style="font-style:normal;font-variant:normal;font-weight:normal;font-stretch:normal;font-size:12.34722233px;font-family:Arial;-inkscape-font-specification:'Arial, Normal';font-variant-ligatures:normal;font-variant-caps:normal;font-variant-numeric:normal;font-feature-settings:normal;text-align:start;writing-mode:lr-tb;text-anchor:start;stroke-width:0.26458332"
         id="path3887" />
      <path
         d="m 53.088921,16.605362 0.156752,0.958598 q -0.458198,0.09646 -0.819933,0.09646 -0.590834,0 -0.916395,-0.186896 -0.325562,-0.186897 -0.458198,-0.488343 -0.132636,-0.307474 -0.132636,-1.284159 v -3.683668 h -0.795817 v -0.844049 h 0.795817 V 9.5877022 l 1.079176,-0.6511231 v 2.2367279 h 1.091234 v 0.844049 h -1.091234 v 3.743957 q 0,0.464227 0.05426,0.596863 0.06029,0.132636 0.186896,0.211012 0.132636,0.07838 0.373793,0.07838 0.180867,0 0.476284,-0.0422 z"
         style="font-style:normal;font-variant:normal;font-weight:normal;font-stretch:normal;font-size:12.34722233px;font-family:Arial;-inkscape-font-specification:'Arial, Normal';font-variant-ligatures:normal;font-variant-caps:normal;font-variant-numeric:normal;font-feature-settings:normal;text-align:start;writing-mode:lr-tb;text-anchor:start;stroke-width:0.26458332"
         id="path3889" />
    </g>
  </g>
</svg>
